{
  "accessors": [
    {
      "bufferView": 2,
      "componentType": 5126,
      "count": 13123,
      "max": [
        0.5009478330612183,
        0.5360000133514404,
        0.32999998331069946
      ],
      "min": [
        -0.5009479522705078,
        0.0,
        -0.0
      ],
      "type": "VEC3"
    },
    {
      "bufferView": 2,
      "byteOffset": 157476,
      "componentType": 5126,
      "count": 13123,
      "max": [
        1.0,
        1.0,
        1.0
      ],
      "min": [
        -1.0,
        -1.0,
        -1.0
      ],
      "type": "VEC3"
    },
    {
      "bufferView": 3,
      "componentType": 5126,
      "count": 13123,
      "max": [
        1.0,
        1.0,
        1.0,
        1.0
      ],
      "min": [
        -1.0,
        -1.0,
        -1.0,
        -1.0
      ],
      "type": "VEC4"
    },
    {
      "bufferView": 1,
      "componentType": 5126,
      "count": 13123,
      "max": [
        0.9968212246894836,
        0.9972912669181824
      ],
      "min": [
        0.002708758693188429,
        0.0027087589260190725
      ],
      "type": "VEC2"
    },
    {
      "bufferView": 0,
      "componentType": 5125,
      "count": 41448,
      "type": "SCALAR"
    },
    {
      "bufferView": 2,
      "byteOffset": 314952,
      "componentType": 5126,
      "count": 3053,
      "max": [
        0.0,
        0.27000004053115845,
        0.03699076548218727
      ],
      "min": [
        -0.49000000953674316,
        -0.26499998569488525,
        -0.012340178713202477
      ],
      "type": "VEC3"
    },
    {
      "bufferView": 2,
      "byteOffset": 351588,
      "componentType": 5126,
      "count": 3053,
      "max": [
        1.0,
        1.0,
        1.0
      ],
      "min": [
        -1.0,
        -1.0,
        -1.0
      ],
      "type": "VEC3"
    },
    {
      "bufferView": 3,
      "byteOffset": 209968,
      "componentType": 5126,
      "count": 3053,
      "max": [
        1.0,
        1.0,
        1.0,
        1.0
      ],
      "min": [
        -1.0,
        -1.0,
        -1.0,
        -1.0
      ],
      "type": "VEC4"
    },
    {
      "bufferView": 1,
      "byteOffset": 104984,
      "componentType": 5126,
      "count": 3053,
      "max": [
        0.9954487681388855,
        0.9945083260536194
      ],
      "min": [
        0.0027087589260190725,
        0.0027087589260190725
      ],
      "type": "VEC2"
    },
    {
      "bufferView": 0,
      "byteOffset": 165792,
      "componentType": 5125,
      "count": 11199,
      "type": "SCALAR"
    },
    {
      "bufferView": 2,
      "byteOffset": 388224,
      "componentType": 5126,
      "count": 3045,
      "max": [
        0.49000000953674316,
        0.27000004053115845,
        0.03699076548218727
      ],
      "min": [
        -1.4901161193847656e-08,
        -0.26499998569488525,
        -0.012340178713202477
      ],
      "type": "VEC3"
    },
    {
      "bufferView": 2,
      "byteOffset": 424764,
      "componentType": 5126,
      "count": 3045,
      "max": [
        1.0,
        1.0,
        1.0
      ],
      "min": [
        -1.0,
        -1.0,
        -1.0
      ],
      "type": "VEC3"
    },
    {
      "bufferView": 3,
      "byteOffset": 258816,
      "componentType": 5126,
      "count": 3045,
      "max": [
        1.0,
        1.0,
        1.0,
        1.0
      ],
      "min": [
        -1.0,
        -1.0,
        -1.0,
        -1.0
      ],
      "type": "VEC4"
    },
    {
      "bufferView": 1,
      "byteOffset": 129408,
      "componentType": 5126,
      "count": 3045,
      "max": [
        0.9954495429992676,
        0.9880275130271912
      ],
      "min": [
        0.0027087589260190725,
        0.0027087589260190725
      ],
      "type": "VEC2"
    },
    {
      "bufferView": 0,
      "byteOffset": 210588,
      "componentType": 5125,
      "count": 11199,
      "type": "SCALAR"
    }
  ],
  "asset": {
    "extras": {
      "author": "AleixoAlonso (https://sketchfab.com/AleixoAlonso)",
      "license": "CC-BY-4.0 (http://creativecommons.org/licenses/by/4.0/)",
      "source": "https://sketchfab.com/3d-models/wall-mounted-kitchen-cupboard-6b062e27012b44c3a1e4fda2209bca56",
      "title": "Wall-Mounted Kitchen Cupboard"
    },
    "generator": "Sketchfab-12.66.0",
    "version": "2.0"
  },
  "bufferViews": [
    {
      "buffer": 0,
      "byteLength": 255384,
      "name": "floatBufferViews",
      "target": 34963
    },
    {
      "buffer": 0,
      "byteLength": 153768,
      "byteOffset": 255384,
      "byteStride": 8,
      "name": "floatBufferViews",
      "target": 34962
    },
    {
      "buffer": 0,
      "byteLength": 461304,
      "byteOffset": 409152,
      "byteStride": 12,
      "name": "floatBufferViews",
      "target": 34962
    },
    {
      "buffer": 0,
      "byteLength": 307536,
      "byteOffset": 870456,
      "byteStride": 16,
      "name": "floatBufferViews",
      "target": 34962
    }
  ],
  "buffers": [
    {
      "byteLength": 1177992,
      "uri": "scene.bin"
    }
  ],
  "images": [
    {
      "uri": "textures/CPB0002_Cupboard_baseColor.png"
    },
    {
      "uri": "textures/CPB0002_Cupboard_metallicRoughness.png"
    },
    {
      "uri": "textures/CPB0002_Cupboard_normal.png"
    }
  ],
  "materials": [
    {
      "doubleSided": true,
      "name": "CPB0002_Cupboard",
      "normalTexture": {
        "index": 2
      },
      "occlusionTexture": {
        "index": 1
      },
      "pbrMetallicRoughness": {
        "baseColorTexture": {
          "index": 0
        },
        "metallicRoughnessTexture": {
          "index": 1
        }
      }
    }
  ],
  "meshes": [
    {
      "name": "Object_0",
      "primitives": [
        {
          "attributes": {
            "NORMAL": 1,
            "POSITION": 0,
            "TANGENT": 2,
            "TEXCOORD_0": 3
          },
          "indices": 4,
          "material": 0,
          "mode": 4
        }
      ]
    },
    {
      "name": "Object_1",
      "primitives": [
        {
          "attributes": {
            "NORMAL": 6,
            "POSITION": 5,
            "TANGENT": 7,
            "TEXCOORD_0": 8
          },
          "indices": 9,
          "material": 0,
          "mode": 4
        }
      ]
    },
    {
      "name": "Object_2",
      "primitives": [
        {
          "attributes": {
            "NORMAL": 11,
            "POSITION": 10,
            "TANGENT": 12,
            "TEXCOORD_0": 13
          },
          "indices": 14,
          "material": 0,
          "mode": 4
        }
      ]
    }
  ],
  "nodes": [
    {
      "children": [
        1
      ],
      "matrix": [
        1.0,
        0.0,
        0.0,
        0.0,
        0.0,
        2.220446049250313e-16,
        -1.0,
        0.0,
        0.0,
        1.0,
        2.220446049250313e-16,
        0.0,
        0.0,
        0.0,
        0.0,
        1.0
      ],
      "name": "Sketchfab_model"
    },
    {
      "children": [
        2
      ],
      "name": "root"
    },
    {
      "children": [
        3,
        5,
        7
      ],
      "matrix": [
        1.0,
        0.0,
        0.0,
        0.0,
        0.0,
        2.220446049250313e-16,
        1.0,
        0.0,
        0.0,
        -1.0,
        2.220446049250313e-16,
        0.0,
        0.0,
        0.0,
        0.0,
        1.0
      ],
      "name": "GLTF_SceneRootNode"
    },
    {
      "children": [
        4
      ],
      "name": "#CPB0002_Wood_Gray_54x100x35_Wall_0"
    },
    {
      "mesh": 0,
      "name": "Object_4"
    },
    {
      "children": [
        6
      ],
      "matrix": [
        1.0,
        0.0,
        0.0,
        0.0,
        0.0,
        1.0,
        0.0,
        0.0,
        0.0,
        0.0,
        1.0,
        0.0,
        0.4939550757408142,
        0.2654999792575836,
        0.3378713130950928,
        1.0
      ],
      "name": "#CPB0002_Door_Right_1"
    },
    {
      "mesh": 1,
      "name": "Object_6"
    },
    {
      "children": [
        8
      ],
      "matrix": [
        1.0,
        0.0,
        0.0,
        0.0,
        0.0,
        1.0,
        0.0,
        0.0,
        0.0,
        0.0,
        1.0,
        0.0,
        -0.4939550757408142,
        0.2654999792575836,
        0.3378713130950928,
        1.0
      ],
      "name": "#CPB0002_Door_Left_2"
    },
    {
      "mesh": 2,
      "name": "Object_8"
    }
  ],
  "samplers": [
    {
      "magFilter": 9729,
      "minFilter": 9987,
      "wrapS": 10497,
      "wrapT": 10497
    }
  ],
  "scene": 0,
  "scenes": [
    {
      "name": "Sketchfab_Scene",
      "nodes": [
        0
      ]
    }
  ],
  "textures": [
    {
      "sampler": 0,
      "source": 0
    },
    {
      "sampler": 0,
      "source": 1
    },
    {
      "sampler": 0,
      "source": 2
    }
  ]
}
